<svg width="60" height="60" viewBox="0 0 60 60" fill="none" xmlns="http://www.w3.org/2000/svg">
<circle cx="30" cy="30" r="30" fill="url(#paint0_linear_23_2169)"/>
<path d="M28.2166 15.5583C27.3416 16.025 27.1666 17.0167 27.1666 21.625V27.1667H21.6249C16.7249 27.1667 16.0832 27.2833 15.4999 28.3333C15.0332 29.15 15.0332 29.85 15.4999 30.6667C16.0832 31.7167 16.7249 31.8333 21.6249 31.8333H27.1666V37.375C27.1666 42.275 27.2832 42.9167 28.3332 43.5C29.1499 43.9667 29.8499 43.9667 30.6666 43.5C31.7166 42.9167 31.8332 42.275 31.8332 37.375V31.8333H37.3749C42.2749 31.8333 42.9166 31.7167 43.4999 30.6667C43.9666 29.85 43.9666 29.15 43.4999 28.3333C42.9166 27.2833 42.2749 27.1667 37.3749 27.1667H31.8332V21.625C31.8332 16.7833 31.7166 16.025 30.7249 15.5C29.3832 14.8 29.4416 14.8 28.2166 15.5583Z" fill="white"/>
<defs>
<linearGradient id="paint0_linear_23_2169" x1="30" y1="0" x2="30" y2="60" gradientUnits="userSpaceOnUse">
<stop stop-color="#FF2608" stop-opacity="0.74"/>
<stop offset="1" stop-color="#FF9E01" stop-opacity="0.92"/>
</linearGradient>
</defs>
</svg>
