<svg width="97" height="123" viewBox="0 0 97 123" fill="none" xmlns="http://www.w3.org/2000/svg">
<path d="M9.3791 1.33907C5.9584 2.5336 3.48789 4.81406 1.85898 8.23477L0.854492 10.3252V61.5271V112.729L1.99473 115.037C3.43359 117.887 5.36113 119.788 8.32031 121.199L10.3564 122.177H48.5271H86.6979L88.9783 121.037C91.8832 119.598 93.7293 117.724 95.141 114.792L96.1455 112.675L96.227 69.2373C96.2541 45.3467 96.227 25.5012 96.1455 25.1211C95.9555 24.3609 73.5309 1.71915 72.3363 1.06758C71.7119 0.741798 67.0695 0.6875 41.3871 0.6875H11.1709L9.3791 1.33907ZM61.5855 17.601L61.667 25.8541L62.8072 28.1617C64.2461 31.0123 66.1736 32.9127 69.1328 34.3244L71.1689 35.3018L79.3949 35.3832L87.5938 35.4647V72.1693C87.5938 96.3857 87.4852 109.281 87.2951 110.096C86.915 111.779 85.6934 112.973 84.0102 113.326C82.1641 113.734 14.8359 113.734 12.9898 113.326C11.3066 112.973 10.085 111.779 9.70488 110.096C9.29766 108.385 9.29766 14.7775 9.70488 12.9586C10.0307 11.3297 11.2523 10.0537 12.7998 9.67364C13.4242 9.5379 24.0121 9.4293 37.6949 9.40215L61.5041 9.375L61.5855 17.601ZM80.3451 26.6957C74.3182 26.7772 72.825 26.5328 71.6305 25.3111C70.4359 24.0895 70.2459 22.7863 70.2188 16.7051V11.4111L77.8203 19.0127L85.4219 26.6143L80.3451 26.6957Z" fill="url(#paint0_linear_23_2914)"/>
<defs>
<linearGradient id="paint0_linear_23_2914" x1="48.5458" y1="122.177" x2="48.5458" y2="0.6875" gradientUnits="userSpaceOnUse">
<stop stop-color="#FF2608" stop-opacity="0.74"/>
<stop offset="1" stop-color="#FF9E01" stop-opacity="0.92"/>
</linearGradient>
</defs>
</svg>
