<svg width="88" height="88" viewBox="0 0 88 88" fill="none" xmlns="http://www.w3.org/2000/svg">
<circle cx="44" cy="44" r="44" fill="#ABABAB"/>
<path d="M42.2558 25.1484C39.6285 25.7125 37.387 27.4641 36.2515 29.8465C35.591 31.227 35.3609 32.3848 35.4128 34.0547C35.4574 35.4426 35.6577 36.2961 36.207 37.4465C37.6913 40.5711 40.6156 42.4414 43.9999 42.4414C47.9335 42.4414 51.3253 39.7992 52.357 35.9473C52.6167 34.9527 52.6835 33.2531 52.5054 32.2066C52.1863 30.3734 51.3699 28.8 50.0488 27.4863C48.9652 26.4027 47.6292 25.6309 46.1745 25.2449C45.1577 24.9777 43.2577 24.9332 42.2558 25.1484ZM45.2988 26.6996C47.4808 27.1523 49.2843 28.5328 50.2863 30.5293C51.4144 32.7707 51.2437 35.5242 49.8484 37.6617C48.8761 39.1387 47.3101 40.2445 45.5882 40.675C44.6679 40.8977 43.332 40.8977 42.4117 40.675C38.4335 39.6879 36.0585 35.4945 37.2906 31.598C37.6691 30.4031 38.2183 29.5051 39.1312 28.5996C40.7714 26.9668 43.1167 26.2469 45.2988 26.6996Z" fill="#FBFBFB"/>
<path d="M42.7381 43.9703C40.326 44.2004 38.3666 44.7422 36.2959 45.759C30.3287 48.6906 26.3135 54.8211 26.0611 61.382L26.0166 62.5473L26.2467 62.7699L26.4693 63H43.9998H61.5303L61.7455 62.7848C61.9533 62.5695 61.9607 62.5473 61.9607 61.7977C61.9607 59.6602 61.3373 56.825 60.4318 54.8285C59.4076 52.5871 58.2127 50.8578 56.5057 49.1582C53.7967 46.4492 50.3381 44.7125 46.4787 44.1113C45.7514 44 43.3838 43.9109 42.7381 43.9703ZM46.0631 45.6773C51.1916 46.3453 55.8897 49.7074 58.4576 54.5391C59.4447 56.3871 60.1795 58.8734 60.3057 60.7512L60.3502 61.4414H44.0146H27.6717V61.0629C27.6717 59.9867 28.1838 57.723 28.7479 56.2758C30.8037 51.0434 35.3607 47.0727 40.6748 45.9C42.5006 45.4992 44.1631 45.4324 46.0631 45.6773Z" fill="#FBFBFB"/>
</svg>
