<svg width="28" height="28" viewBox="0 0 28 28" fill="none" xmlns="http://www.w3.org/2000/svg">
<path d="M19.4412 1.82653C19.3209 1.86481 19.1131 1.95231 18.9764 2.01794C18.7959 2.11091 16.5428 4.32575 10.8389 10.0242C6.49668 14.3609 2.89824 17.9867 2.84355 18.0797C2.76152 18.2109 2.63574 18.9984 2.23652 21.8586L1.7334 25.4734L1.86465 25.7359C2.02871 26.0586 2.21465 26.2008 2.5209 26.2336C2.82715 26.2664 9.5209 25.2929 9.79434 25.1781C9.92559 25.1179 12.6107 22.4711 17.9482 17.1281C25.1561 9.90935 25.9162 9.13278 26.0311 8.85935C26.2225 8.39997 26.2826 7.94606 26.2061 7.54685C26.0693 6.80857 26.042 6.77575 23.7178 4.4406C22.5365 3.25388 21.4756 2.22028 21.3498 2.13278C20.8576 1.78825 19.999 1.65153 19.4412 1.82653ZM22.3506 5.64919C24.1607 7.45388 24.4451 7.76013 24.4451 7.90232C24.4451 8.03903 24.2318 8.27419 22.9686 9.54294L21.492 11.0195L19.2225 8.74997L16.9529 6.48044L18.4186 5.01481C19.7693 3.6695 19.8951 3.55466 20.0701 3.55466C20.2451 3.55466 20.4092 3.70231 22.3506 5.64919ZM15.2193 17.2922L10.2264 22.2851L7.95684 20.0156L5.6873 17.7461L10.6748 12.7586L15.6678 7.7656L17.9373 10.0351L20.2068 12.3047L15.2193 17.2922ZM8.81543 23.5211C8.77715 23.5593 3.76777 24.2976 3.7459 24.2703C3.73496 24.2593 3.88809 23.1218 4.07949 21.7383C4.2709 20.3547 4.42949 19.1843 4.42949 19.1406C4.42949 19.0968 5.4248 20.0539 6.64434 21.2734C7.8584 22.4875 8.8373 23.4992 8.81543 23.5211Z" fill="url(#paint0_linear_104_178)"/>
<defs>
<linearGradient id="paint0_linear_104_178" x1="13.9859" y1="26.2344" x2="13.9859" y2="1.75037" gradientUnits="userSpaceOnUse">
<stop stop-color="#888888" stop-opacity="0.74"/>
<stop offset="1" stop-color="#DEDEDE" stop-opacity="0.92"/>
</linearGradient>
</defs>
</svg>
