<svg width="60" height="60" viewBox="0 0 60 60" fill="none" xmlns="http://www.w3.org/2000/svg">
<circle cx="30" cy="30" r="30" fill="url(#paint0_linear_17_33)"/>
<path d="M28.2558 11.1484C25.6285 11.7125 23.387 13.4641 22.2515 15.8465C21.591 17.227 21.3609 18.3848 21.4128 20.0547C21.4574 21.4426 21.6577 22.2961 22.207 23.4465C23.6913 26.5711 26.6156 28.4414 29.9999 28.4414C33.9335 28.4414 37.3253 25.7992 38.357 21.9473C38.6167 20.9527 38.6835 19.2531 38.5054 18.2066C38.1863 16.3734 37.3699 14.8 36.0488 13.4863C34.9652 12.4027 33.6292 11.6309 32.1745 11.2449C31.1577 10.9777 29.2577 10.9332 28.2558 11.1484ZM31.2988 12.6996C33.4808 13.1523 35.2843 14.5328 36.2863 16.5293C37.4144 18.7707 37.2437 21.5242 35.8484 23.6617C34.8761 25.1387 33.3101 26.2445 31.5882 26.675C30.6679 26.8977 29.332 26.8977 28.4117 26.675C24.4335 25.6879 22.0585 21.4945 23.2906 17.598C23.6691 16.4031 24.2183 15.5051 25.1312 14.5996C26.7714 12.9668 29.1167 12.2469 31.2988 12.6996Z" fill="#FBFBFB"/>
<path d="M28.7383 29.9703C26.3262 30.2004 24.3668 30.7422 22.2961 31.759C16.329 34.6906 12.3137 40.8211 12.0614 47.382L12.0168 48.5473L12.2469 48.7699L12.4696 49H30H47.5305L47.7458 48.7848C47.9536 48.5695 47.961 48.5473 47.961 47.7977C47.961 45.6602 47.3376 42.825 46.4321 40.8285C45.4079 38.5871 44.2129 36.8578 42.5059 35.1582C39.7969 32.4492 36.3383 30.7125 32.479 30.1113C31.7516 30 29.384 29.9109 28.7383 29.9703ZM32.0633 31.6773C37.1918 32.3453 41.8899 35.7074 44.4579 40.5391C45.445 42.3871 46.1797 44.8734 46.3059 46.7512L46.3504 47.4414H30.0149H13.6719V47.0629C13.6719 45.9867 14.184 43.723 14.7481 42.2758C16.804 37.0434 21.361 33.0727 26.675 31.9C28.5008 31.4992 30.1633 31.4324 32.0633 31.6773Z" fill="#FBFBFB"/>
<defs>
<linearGradient id="paint0_linear_17_33" x1="30" y1="0" x2="30" y2="60" gradientUnits="userSpaceOnUse">
<stop stop-color="#FF2608" stop-opacity="0.74"/>
<stop offset="1" stop-color="#FF9E01" stop-opacity="0.92"/>
</linearGradient>
</defs>
</svg>
