<svg width="54" height="54" viewBox="0 0 54 54" fill="none" xmlns="http://www.w3.org/2000/svg">
<circle opacity="0.5" cx="27" cy="27" r="27" fill="url(#paint0_linear_1_1899)"/>
<g clip-path="url(#clip0_1_1899)">
<path d="M19.3438 19.35C19.95 19.6625 20.2188 20.3688 19.9688 20.9875C19.9 21.1438 19.1375 21.95 17.6062 23.4813L15.3438 25.75H28.7437H42.1438L42.4125 25.9063C42.8062 26.1375 43 26.5 43 27C43 27.5 42.8062 27.8625 42.4125 28.0938L42.1438 28.25H28.7437H15.3438L17.6062 30.5125C19.1375 32.05 19.9 32.8563 19.9688 33.0125C20.1812 33.5313 20.0063 34.1563 19.55 34.525C19.3687 34.6625 19.2312 34.7125 18.975 34.7375C18.2437 34.7938 18.5 35 14.7375 31.2938C12.8438 29.4313 11.2312 27.7938 11.15 27.65C10.9375 27.2938 10.9375 26.7063 11.15 26.35C11.3375 26.025 18.0562 19.4 18.2812 19.3125C18.5312 19.2188 19.1313 19.2375 19.3438 19.35Z" fill="white"/>
</g>
<defs>
<linearGradient id="paint0_linear_1_1899" x1="27" y1="0" x2="27" y2="54" gradientUnits="userSpaceOnUse">
<stop stop-color="#888888" stop-opacity="0.74"/>
<stop offset="1" stop-color="#DEDEDE" stop-opacity="0.92"/>
</linearGradient>
<clipPath id="clip0_1_1899">
<rect width="32" height="32" rx="10" transform="matrix(-1 0 0 1 43 11)" fill="white"/>
</clipPath>
</defs>
</svg>
