<svg width="31" height="31" viewBox="0 0 31 31" fill="none" xmlns="http://www.w3.org/2000/svg">
<path d="M10.7484 0.0870781C5.11015 0.850212 0.719422 5.35027 0.0471873 11.0374C0.00479408 11.419 -0.0133744 12.1034 0.0108503 12.8847C0.0532435 14.5381 0.271266 15.6223 0.852658 17.088C2.20924 20.5281 5.02536 23.1809 8.53794 24.3317C9.8703 24.7678 10.9846 24.9434 12.4502 24.9434C15.0544 24.9434 17.3315 24.259 19.4875 22.8115L20.1173 22.3875L24.3022 26.5726C27.5119 29.7766 28.5475 30.782 28.7595 30.8728C29.135 31.0424 29.7769 31.0424 30.1282 30.8728C30.4249 30.7335 30.7944 30.3519 30.9155 30.0552C31.0427 29.7523 31.0245 29.0861 30.8731 28.7591C30.7823 28.5471 29.783 27.5175 26.5732 24.3014L22.3884 20.1163L22.776 19.547C23.8722 17.942 24.605 16.0402 24.8533 14.1324C24.9683 13.236 24.9683 11.6976 24.8533 10.8194C24.29 6.53131 21.5284 2.81861 17.604 1.06825C16.4655 0.559494 15.4238 0.26272 14.1338 0.0810223C13.3768 -0.0279961 11.56 -0.0279961 10.7484 0.0870781ZM14.3155 3.30919C16.2111 3.72104 17.6585 4.51446 19.0454 5.89536C19.9175 6.76752 20.3959 7.42769 20.8865 8.43914C22.8911 12.6 21.4981 17.6694 17.6464 20.2314C16.1505 21.2246 14.6244 21.7092 12.8015 21.7758C10.0278 21.8727 7.64163 20.8915 5.67943 18.8444C4.49242 17.6028 3.693 16.0826 3.2933 14.2838C3.14189 13.5994 3.0995 11.8611 3.22062 11.098C3.67483 8.26955 5.31 5.87114 7.81726 4.38121C8.71357 3.84823 9.93692 3.41821 11.1058 3.2244C11.8083 3.10933 13.607 3.15778 14.3155 3.30919Z" fill="#ADADAD"/>
</svg>
